<?xml version="1.0" encoding="UTF-8"?>
<svg version="1.1" xmlns="http://www.w3.org/2000/svg" width="500" height="500">
<path d="M0 0 C95.7 0 191.4 0 290 0 C290 25.74 290 51.48 290 78 C194.3 78 98.6 78 0 78 C0 52.26 0 26.52 0 0 Z M11 25 C11.95676292 30.37746152 13.86946272 35.1894328 15.875 40.25 C16.22691406 41.17296875 16.57882813 42.0959375 16.94140625 43.046875 C17.28816406 43.9234375 17.63492188 44.8 17.9921875 45.703125 C18.30526855 46.50395508 18.61834961 47.30478516 18.94091797 48.12988281 C19.91990371 50.34533846 19.91990371 50.34533846 23 51 C26.3 42.75 29.6 34.5 33 26 C32.01 25.67 31.02 25.34 30 25 C28.82504857 27.93425371 27.66149148 30.87289513 26.5 33.8125 C26.16613281 34.64587891 25.83226562 35.47925781 25.48828125 36.33789062 C25.17246094 37.14033203 24.85664062 37.94277344 24.53125 38.76953125 C24.23798828 39.50792236 23.94472656 40.24631348 23.64257812 41.00708008 C22.84656334 43.12688312 22.84656334 43.12688312 23 46 C20.29058862 44.64529431 20.14484453 43.32306904 19.0546875 40.52734375 C18.70019531 39.62822266 18.34570312 38.72910156 17.98046875 37.80273438 C17.61566406 36.85720703 17.25085938 35.91167969 16.875 34.9375 C16.50246094 33.98810547 16.12992188 33.03871094 15.74609375 32.06054688 C14.82452835 29.7093736 13.90948198 27.35586803 13 25 C12.34 25 11.68 25 11 25 Z M41 25 C41 33.58 41 42.16 41 51 C46.28 51 51.56 51 57 51 C57 50.01 57 49.02 57 48 C52.71 48 48.42 48 44 48 C44 45.03 44 42.06 44 39 C47.63 39 51.26 39 55 39 C55 38.34 55 37.68 55 37 C51.37 37 47.74 37 44 37 C44 33.7 44 30.4 44 27 C47.96 27 51.92 27 56 27 C56 26.34 56 25.68 56 25 C51.05 25 46.1 25 41 25 Z M64 25 C64 25.66 64 26.32 64 27 C66.97 27 69.94 27 73 27 C73 34.92 73 42.84 73 51 C73.66 51 74.32 51 75 51 C75.33 43.41 75.66 35.82 76 28 C78.64 27.67 81.28 27.34 84 27 C84 26.34 84 25.68 84 25 C77.4 25 70.8 25 64 25 Z M93 25 C93 33.58 93 42.16 93 51 C97.95 51 102.9 51 108 51 C108 50.01 108 49.02 108 48 C103.71 48 99.42 48 95 48 C95 45.03 95 42.06 95 39 C98.96 39 102.92 39 107 39 C107 38.34 107 37.68 107 37 C103.37 36.67 99.74 36.34 96 36 C95.67 33.03 95.34 30.06 95 27 C99.29 27 103.58 27 108 27 C108 26.34 108 25.68 108 25 C103.05 25 98.1 25 93 25 Z M119 25 C119 33.58 119 42.16 119 51 C119.66 51 120.32 51 121 51 C121 47.7 121 44.4 121 41 C123.31 41 125.62 41 128 41 C128.2475 41.53625 128.495 42.0725 128.75 42.625 C130.30652537 45.5823982 132.03435673 48.29724051 134 51 C134.66 51 135.32 51 136 51 C134.55049545 47.2089881 132.84827434 43.6125362 131 40 C132.32 39.67 133.64 39.34 135 39 C136.91319191 34.1218082 136.91319191 34.1218082 135.875 29.1875 C133.94441892 26.64882863 133.94441892 26.64882863 130 25 C126.37 25 122.74 25 119 25 Z M147 25 C147 33.58 147 42.16 147 51 C147.66 51 148.32 51 149 51 C149 42.42 149 33.84 149 25 C148.34 25 147.68 25 147 25 Z M161 25 C161 33.58 161 42.16 161 51 C161.66 51 162.32 51 163 51 C163.33 44.4 163.66 37.8 164 31 C166.1476039 33.95706239 168.29315337 36.91557711 170.4375 39.875 C171.04916016 40.71675781 171.66082031 41.55851562 172.29101562 42.42578125 C172.87431641 43.23144531 173.45761719 44.03710938 174.05859375 44.8671875 C174.59798584 45.61081543 175.13737793 46.35444336 175.69311523 47.12060547 C177 49 177 49 178 51 C178.99 51 179.98 51 181 51 C181 42.42 181 33.84 181 25 C180.01 25 179.02 25 178 25 C177.67 31.27 177.34 37.54 177 44 C176.09636719 42.71222656 175.19273437 41.42445313 174.26171875 40.09765625 C173.07070923 38.41898929 171.87928124 36.74061917 170.6875 35.0625 C170.09259766 34.21236328 169.49769531 33.36222656 168.88476562 32.48632812 C168.30791016 31.67744141 167.73105469 30.86855469 167.13671875 30.03515625 C166.60780029 29.2862915 166.07888184 28.53742676 165.53393555 27.76586914 C164.02420871 25.72538905 164.02420871 25.72538905 161 25 Z M200 25 C195.46152502 33.35400704 192.2200178 42.08132526 189 51 C189.99 51 190.98 51 192 51 C192.66 49.35 193.32 47.7 194 46 C198.62 45.67 203.24 45.34 208 45 C208.66 46.98 209.32 48.96 210 51 C210.66 51 211.32 51 212 51 C209.70175036 41.89455379 205.8597477 33.5231689 202 25 C201.34 25 200.68 25 200 25 Z M221 25 C221 33.58 221 42.16 221 51 C221.66 51 222.32 51 223 51 C223 47.7 223 44.4 223 41 C225.8464625 40.94307075 227.42415068 40.92030268 230 42 C232.41218388 44.77322659 234.22832509 47.78762241 236 51 C236.99 50.67 237.98 50.34 239 50 C238.6390625 49.51789063 238.278125 49.03578125 237.90625 48.5390625 C237.4421875 47.90742188 236.978125 47.27578125 236.5 46.625 C236.0359375 45.99851562 235.571875 45.37203125 235.09375 44.7265625 C234 43 234 43 234 41 C234.845625 40.278125 235.69125 39.55625 236.5625 38.8125 C239.3956872 36.16373263 239.3956872 36.16373263 239 32.375 C237.86704337 28.51779538 237.86704337 28.51779538 235 26 C230.78779356 24.4202491 230.78779356 24.4202491 221 25 Z M246 25 C246.56589844 25.98742187 247.13179687 26.97484375 247.71484375 27.9921875 C248.45575759 29.28644206 249.19664145 30.58071379 249.9375 31.875 C250.31068359 32.52597656 250.68386719 33.17695313 251.06835938 33.84765625 C253.57068022 38.22108188 255.11368322 41.12389877 255.5625 46.125 C255.64628906 47.03507812 255.73007812 47.94515625 255.81640625 48.8828125 C255.87699219 49.58148438 255.93757812 50.28015625 256 51 C256.66 51 257.32 51 258 51 C257.979375 50.35675781 257.95875 49.71351563 257.9375 49.05078125 C258.12282357 40.93129224 260.86205709 36.18982423 265.28515625 29.65234375 C267.18098119 27.24648026 267.18098119 27.24648026 267 25 C263.21429586 26.26190138 262.78168429 27.54855815 260.8125 30.9375 C260.01779297 32.28134766 260.01779297 32.28134766 259.20703125 33.65234375 C257.8475841 35.85648389 257.8475841 35.85648389 258 38 C254.55580991 34.91457971 252.70323362 31.09260495 250.5 27.08203125 C250.005 26.39496094 249.51 25.70789063 249 25 C248.01 25 247.02 25 246 25 Z " fill="#080808" transform="translate(28,211)"/>
<path d="M0 0 C3.64842958 2.77975587 5.38496761 5.59099593 6.625 10 C7.02702154 14.75993502 6.30686277 18.61211714 3.375 22.4375 C-1.00312782 26.51711911 -4.35810526 27.43165314 -10.38671875 27.25 C-14.74019473 26.70260813 -17.5636563 24.76748728 -20.6875 21.8125 C-22.81458247 18.26736255 -23.57706733 15.08797756 -23.375 11 C-21.90069482 6.34429943 -20.18280618 3.09384252 -16.375 0 C-10.95903473 -1.80532176 -5.44885458 -1.61447543 0 0 Z M-13.3125 8.0625 C-15.04165678 11.21566824 -14.2340699 13.62508255 -13.375 17 C-10.14246204 19.15502531 -9.12349077 19.46856135 -5.375 19 C-3.43845052 17.98029682 -3.43845052 17.98029682 -2.375 16 C-1.98134432 12.85075452 -1.84645469 10.88090884 -3.5 8.125 C-6.79215997 6.14970402 -9.96740814 6.22809478 -13.3125 8.0625 Z " fill="#202020" transform="translate(404.375,235)"/>
<path d="M0 0 C3.30401747 1.65200873 4.93890317 3.42850583 6.890625 6.5390625 C8.24723591 11.71114159 8.53522929 16.37862398 5.875 21.1875 C3.3377246 24.47953453 0.91785081 26.41499836 -3.109375 27.3515625 C-8.74397706 27.79875314 -12.25843544 27.54877266 -17.109375 24.3515625 C-20.56172888 21.08582234 -21.83729271 18.18579701 -22.20703125 13.40625 C-21.97472893 8.51860913 -20.06123155 5.23377101 -16.546875 1.9765625 C-11.45357298 -1.41897218 -5.90326165 -1.81470636 0 0 Z M-12.046875 8.4140625 C-13.77603178 11.56723074 -12.9684449 13.97664505 -12.109375 17.3515625 C-8.87683704 19.50658781 -7.85786577 19.82012385 -4.109375 19.3515625 C-2.17282552 18.33185932 -2.17282552 18.33185932 -1.109375 16.3515625 C-0.71571932 13.20231702 -0.58082969 11.23247134 -2.234375 8.4765625 C-5.52653497 6.50126652 -8.70178314 6.57965728 -12.046875 8.4140625 Z " fill="#202020" transform="translate(372.109375,234.6484375)"/>
<path d="M0 0 C15.31479538 -0.43756558 15.31479538 -0.43756558 21 3 C22.3729863 5.7459726 22.12412634 7.9589047 22 11 C21.67 11.99 21.34 12.98 21 14 C21.99 15.485 21.99 15.485 23 17 C22.78230019 23.09559476 22.78230019 23.09559476 20.5234375 25.70703125 C16.6691269 27.68191795 13.00668554 27.31620285 8.75 27.1875 C5.8625 27.125625 2.975 27.06375 0 27 C0 18.09 0 9.18 0 0 Z M8 7 C8 8.32 8 9.64 8 11 C9.65 10.67 11.3 10.34 13 10 C13 9.01 13 8.02 13 7 C11.35 7 9.7 7 8 7 Z M8 17 C8 18.32 8 19.64 8 21 C9.65 21 11.3 21 13 21 C13.33 19.68 13.66 18.36 14 17 C12.02 17 10.04 17 8 17 Z " fill="#191919" transform="translate(326,234)"/>
<path d="M0 0 C2.64 0 5.28 0 8 0 C9 1 9 1 9.09765625 3.06640625 C9.08605469 3.89011719 9.07445312 4.71382812 9.0625 5.5625 C9.05347656 6.38878906 9.04445313 7.21507812 9.03515625 8.06640625 C9.02355469 8.70449219 9.01195312 9.34257812 9 10 C10.32 9.67 11.64 9.34 13 9 C13.12375 8.2575 13.2475 7.515 13.375 6.75 C14 4 14 4 16 0 C18.97 0 21.94 0 25 0 C24.54625 1.36125 24.0925 2.7225 23.625 4.125 C23.35945313 4.95386719 23.09390625 5.78273437 22.8203125 6.63671875 C22 9 22 9 20.5 11.9375 C19.77588163 16.372725 21.67227648 19.00989967 23.8359375 22.828125 C25 25 25 25 25 27 C21.87352106 27.49042807 19.10292659 27.70284411 16 27 C14.1903192 25.07398257 13.13664454 23.21318083 11.97265625 20.84765625 C11.13766383 18.82585858 11.13766383 18.82585858 9 18 C9 20.97 9 23.94 9 27 C6.03 27 3.06 27 0 27 C0 18.09 0 9.18 0 0 Z " fill="#262626" transform="translate(414,234)"/>
<path d="M0 0 C3 1.0625 3 1.0625 5 3 C5.8125 6.6875 5.8125 6.6875 6 10 C3.69 10 1.38 10 -1 10 C-1.33 9.01 -1.66 8.02 -2 7 C-3.32 7.33 -4.64 7.66 -6 8 C-4.71802734 8.61488281 -4.71802734 8.61488281 -3.41015625 9.2421875 C-1.75306641 10.05042969 -1.75306641 10.05042969 -0.0625 10.875 C1.59072266 11.67550781 1.59072266 11.67550781 3.27734375 12.4921875 C6 14 6 14 7 16 C7.5801105 22.26519337 7.5801105 22.26519337 5.125 25.375 C0.91821047 28.5919567 -2.84185463 28.50867524 -8 28 C-11.63467079 26.37599816 -12.77408696 25.33886956 -15 22 C-15 20.68 -15 19.36 -15 18 C-12.36 18 -9.72 18 -7 18 C-6.67 18.66 -6.34 19.32 -6 20 C-3.97536745 20.65213292 -3.97536745 20.65213292 -2 21 C-2 20.01 -2 19.02 -2 18 C-2.60328125 17.91363281 -3.2065625 17.82726562 -3.828125 17.73828125 C-7.88938578 17.0242854 -10.4092412 16.51871504 -13.5625 13.75 C-15.28542121 10.45397682 -15.62412783 8.666751 -15 5 C-10.64164514 -0.37530433 -6.57484884 -0.60184281 0 0 Z " fill="#2B2B2B" transform="translate(456,234)"/>
<path d="M0 0 C4.12277052 -0.2096324 7.10146489 -0.31823119 11 1.0625 C13 3 13 3 13.5 6.5625 C13.335 7.696875 13.17 8.83125 13 10 C8.61501596 12.92332269 5.2225328 12.1356502 0 12 C0 8.04 0 4.08 0 0 Z " fill="#323232" transform="translate(251,238)"/>
<path d="M0 0 C4.53675697 -0.17791204 7.907775 -0.0461125 12 2 C13 3 13 3 13.25 5.875 C13 9 13 9 11.80859375 10.68359375 C9.37342508 12.45605993 7.79062791 12.30353096 4.8125 12.1875 C3.224375 12.125625 1.63625 12.06375 0 12 C0 8.04 0 4.08 0 0 Z " fill="#2E2E2E" transform="translate(149,238)"/>
<path d="M0 0 C4.05459667 4.05459667 4.50051618 7.50189266 6 13 C2.37 13 -1.26 13 -5 13 C-3.35 8.71 -1.7 4.42 0 0 Z " fill="#373737" transform="translate(228,240)"/>
</svg>
