<?xml version="1.0" standalone="no"?>
<!DOCTYPE svg PUBLIC "-//W3C//DTD SVG 20010904//EN"
 "http://www.w3.org/TR/2001/REC-SVG-20010904/DTD/svg10.dtd">
<svg version="1.0" xmlns="http://www.w3.org/2000/svg"
 width="500.000000pt" height="80.000000pt" viewBox="0 0 500.000000 80.000000"
 preserveAspectRatio="xMidYMid meet">

<g transform="translate(0.000000,80.000000) scale(0.100000,-0.100000)"
fill="#00638e" stroke="none">
<path d="M290 400 l0 -390 1440 0 1440 0 0 390 0 390 -1440 0 -1440 0 0 -390z
m165 40 c21 -56 39 -99 41 -97 2 2 21 46 42 98 30 73 43 95 59 97 20 3 18 -6
-30 -128 -67 -169 -73 -169 -139 -6 -26 66 -48 123 -48 128 0 4 8 8 18 8 14 0
28 -24 57 -100z m395 85 c0 -12 -14 -15 -65 -15 l-65 0 0 -40 0 -40 60 0 c46
0 60 -3 60 -15 0 -10 -15 -15 -57 -17 l-58 -3 -3 -42 -3 -43 65 0 c52 0 66 -3
66 -15 0 -12 -16 -15 -80 -15 l-80 0 0 130 0 130 80 0 c64 0 80 -3 80 -15z
m280 0 c0 -11 -12 -15 -45 -15 l-45 0 0 -115 c0 -108 -1 -115 -20 -115 -19 0
-20 7 -20 115 l0 115 -45 0 c-33 0 -45 4 -45 15 0 12 19 15 110 15 91 0 110
-3 110 -15z m240 0 c0 -12 -14 -15 -65 -15 l-65 0 0 -40 0 -40 60 0 c47 0 60
-3 60 -15 0 -12 -13 -15 -60 -15 l-60 0 0 -45 0 -45 65 0 c51 0 65 -3 65 -15
0 -12 -16 -15 -85 -15 l-85 0 0 130 0 130 85 0 c69 0 85 -3 85 -15z m257 -7
c30 -28 32 -89 3 -118 -11 -11 -25 -20 -30 -20 -6 0 3 -20 20 -44 35 -52 36
-56 12 -56 -11 0 -33 20 -51 45 -23 32 -39 45 -57 45 -22 0 -24 -4 -24 -45 0
-38 -3 -45 -20 -45 -19 0 -20 7 -20 130 l0 130 72 0 c60 0 76 -4 95 -22z m153
-108 c0 -123 -1 -130 -20 -130 -19 0 -20 7 -20 130 0 123 1 130 20 130 19 0
20 -7 20 -130z m207 34 l68 -97 3 97 c2 76 6 96 17 96 12 0 15 -23 15 -130 0
-165 -8 -168 -100 -35 l-65 94 -3 -94 c-2 -87 -4 -95 -22 -95 -19 0 -20 7 -20
130 0 122 1 130 19 130 13 0 42 -32 88 -96z m368 -21 c26 -65 50 -124 52 -130
3 -8 -3 -13 -15 -13 -12 0 -24 11 -32 30 -12 29 -15 30 -74 30 -59 0 -62 -1
-73 -30 -7 -20 -18 -30 -32 -30 -18 0 -16 9 30 122 60 146 56 138 78 138 13 0
30 -30 66 -117z m285 107 c30 -16 42 -66 26 -105 -8 -18 -22 -37 -31 -43 -16
-8 -15 -14 14 -56 l32 -46 -25 0 c-18 0 -31 12 -53 45 -22 35 -34 45 -55 45
-26 0 -28 -3 -28 -45 0 -38 -3 -45 -20 -45 -19 0 -20 7 -20 130 l0 130 71 0
c39 0 79 -4 89 -10z m170 -49 c19 -33 38 -57 42 -55 4 2 21 29 38 59 21 37 38
55 51 55 10 0 19 -2 19 -4 0 -2 -20 -39 -45 -80 -37 -63 -45 -85 -45 -126 0
-43 -3 -50 -20 -50 -17 0 -20 7 -20 48 0 38 -9 62 -45 122 -50 85 -52 90 -27
90 11 0 31 -22 52 -59z"/>
<path d="M1500 460 l0 -50 43 0 c50 0 67 13 67 52 0 33 -24 48 -74 48 l-36 0
0 -50z"/>
<path d="M2264 433 c-11 -27 -20 -51 -22 -55 -2 -5 17 -8 42 -8 25 0 46 4 46
9 0 10 -40 101 -44 101 -2 0 -12 -21 -22 -47z"/>
<path d="M2520 460 l0 -50 44 0 c35 0 48 5 60 22 20 29 20 34 -4 58 -13 13
-33 20 -60 20 l-40 0 0 -50z"/>
<path d="M4480 549 c-41 -9 -60 -32 -60 -74 0 -39 23 -61 81 -78 33 -10 44
-18 44 -32 0 -25 -42 -34 -51 -11 -4 10 -18 16 -40 16 -27 0 -34 -4 -34 -19 0
-33 47 -61 100 -61 62 0 100 28 100 74 0 40 -21 61 -83 82 -34 11 -47 21 -47
35 0 23 48 27 56 4 4 -9 19 -15 41 -15 31 0 34 2 28 23 -4 12 -13 28 -20 35
-18 19 -74 29 -115 21z"/>
<path d="M3260 419 l0 -131 89 4 c70 2 93 7 110 22 24 22 27 63 7 92 -10 13
-11 25 -5 35 5 8 9 29 9 46 0 46 -37 63 -135 63 l-75 0 0 -131z m138 54 c3
-20 -1 -23 -32 -23 -32 0 -36 3 -36 26 0 23 3 25 33 22 24 -2 33 -8 35 -25z
m2 -83 c23 -15 -1 -45 -36 -45 -24 0 -30 5 -32 28 -3 24 0 27 25 27 15 0 35
-5 43 -10z"/>
<path d="M3566 529 c-107 -84 -51 -239 86 -239 125 0 185 144 94 227 -32 29
-42 33 -95 33 -44 0 -65 -5 -85 -21z m133 -65 c27 -35 26 -59 -4 -89 -28 -29
-55 -32 -83 -7 -35 29 -38 67 -8 96 33 34 69 33 95 0z"/>
<path d="M3876 529 c-107 -84 -51 -239 86 -239 125 0 185 144 94 227 -32 29
-42 33 -95 33 -44 0 -65 -5 -85 -21z m133 -65 c27 -35 26 -59 -4 -89 -28 -29
-55 -32 -83 -7 -35 29 -38 67 -8 96 33 34 69 33 95 0z"/>
<path d="M4150 420 l0 -130 35 0 35 0 0 50 c0 42 3 50 18 50 12 0 26 -17 42
-50 23 -49 25 -50 67 -50 l43 0 -34 62 c-25 44 -32 66 -26 78 5 10 18 40 29
69 l21 51 -39 0 c-36 0 -39 -2 -55 -45 -14 -36 -22 -45 -42 -45 -22 0 -24 4
-24 45 0 45 0 45 -35 45 l-35 0 0 -130z"/>
</g>
</svg>
